<mxfile host="app.diagrams.net" modified="2023-06-10T19:13:27.009Z" agent="Mozilla/5.0 (Windows NT 10.0; Win64; x64) AppleWebKit/537.36 (KHTML, like Gecko) Chrome/114.0.0.0 Safari/537.36 Edg/114.0.1823.43" etag="PlGq59lNLXre1IVYM7ou" version="21.3.8" type="device">
  <diagram name="Page-1" id="cMsmDIJfuKTCqYFijltp">
    <mxGraphModel dx="765" dy="888" grid="1" gridSize="10" guides="1" tooltips="1" connect="1" arrows="1" fold="1" page="1" pageScale="1" pageWidth="850" pageHeight="1100" math="0" shadow="0">
      <root>
        <mxCell id="0" />
        <mxCell id="1" parent="0" />
        <mxCell id="qfSBq-5RkWq7vztMfRcF-1" style="edgeStyle=orthogonalEdgeStyle;rounded=0;orthogonalLoop=1;jettySize=auto;html=1;" edge="1" parent="1" source="qfSBq-5RkWq7vztMfRcF-2" target="qfSBq-5RkWq7vztMfRcF-45">
          <mxGeometry relative="1" as="geometry" />
        </mxCell>
        <mxCell id="qfSBq-5RkWq7vztMfRcF-2" value="" style="sketch=0;outlineConnect=0;fontColor=#232F3E;gradientColor=none;fillColor=#232F3D;strokeColor=none;dashed=0;verticalLabelPosition=bottom;verticalAlign=top;align=center;html=1;fontSize=12;fontStyle=0;aspect=fixed;pointerEvents=1;shape=mxgraph.aws4.users;" vertex="1" parent="1">
          <mxGeometry x="1030" y="555" width="40" height="40" as="geometry" />
        </mxCell>
        <mxCell id="qfSBq-5RkWq7vztMfRcF-3" value="VPC" style="points=[[0,0],[0.25,0],[0.5,0],[0.75,0],[1,0],[1,0.25],[1,0.5],[1,0.75],[1,1],[0.75,1],[0.5,1],[0.25,1],[0,1],[0,0.75],[0,0.5],[0,0.25]];outlineConnect=0;gradientColor=none;html=1;whiteSpace=wrap;fontSize=12;fontStyle=0;container=1;pointerEvents=0;collapsible=0;recursiveResize=0;shape=mxgraph.aws4.group;grIcon=mxgraph.aws4.group_vpc;strokeColor=#248814;fillColor=none;verticalAlign=top;align=left;spacingLeft=30;fontColor=#AAB7B8;dashed=0;" vertex="1" parent="1">
          <mxGeometry x="1240" y="190" width="1020" height="650" as="geometry" />
        </mxCell>
        <mxCell id="qfSBq-5RkWq7vztMfRcF-8" value="Auto Scaling group" style="points=[[0,0],[0.25,0],[0.5,0],[0.75,0],[1,0],[1,0.25],[1,0.5],[1,0.75],[1,1],[0.75,1],[0.5,1],[0.25,1],[0,1],[0,0.75],[0,0.5],[0,0.25]];outlineConnect=0;gradientColor=none;html=1;whiteSpace=wrap;fontSize=12;fontStyle=0;container=1;pointerEvents=0;collapsible=0;recursiveResize=0;shape=mxgraph.aws4.groupCenter;grIcon=mxgraph.aws4.group_auto_scaling_group;grStroke=1;strokeColor=#D86613;fillColor=none;verticalAlign=top;align=center;fontColor=#D86613;dashed=1;spacingTop=25;" vertex="1" parent="qfSBq-5RkWq7vztMfRcF-3">
          <mxGeometry x="130" y="80" width="180" height="540" as="geometry" />
        </mxCell>
        <mxCell id="qfSBq-5RkWq7vztMfRcF-9" value="EC2 instance contents" style="points=[[0,0],[0.25,0],[0.5,0],[0.75,0],[1,0],[1,0.25],[1,0.5],[1,0.75],[1,1],[0.75,1],[0.5,1],[0.25,1],[0,1],[0,0.75],[0,0.5],[0,0.25]];outlineConnect=0;gradientColor=none;html=1;whiteSpace=wrap;fontSize=12;fontStyle=0;container=1;pointerEvents=0;collapsible=0;recursiveResize=0;shape=mxgraph.aws4.group;grIcon=mxgraph.aws4.group_ec2_instance_contents;strokeColor=#D86613;fillColor=none;verticalAlign=top;align=left;spacingLeft=30;fontColor=#D86613;dashed=0;" vertex="1" parent="qfSBq-5RkWq7vztMfRcF-8">
          <mxGeometry x="10" y="50" width="160" height="480" as="geometry" />
        </mxCell>
        <mxCell id="qfSBq-5RkWq7vztMfRcF-10" value="Public subnet" style="points=[[0,0],[0.25,0],[0.5,0],[0.75,0],[1,0],[1,0.25],[1,0.5],[1,0.75],[1,1],[0.75,1],[0.5,1],[0.25,1],[0,1],[0,0.75],[0,0.5],[0,0.25]];outlineConnect=0;gradientColor=none;html=1;whiteSpace=wrap;fontSize=12;fontStyle=0;container=1;pointerEvents=0;collapsible=0;recursiveResize=0;shape=mxgraph.aws4.group;grIcon=mxgraph.aws4.group_security_group;grStroke=0;strokeColor=#248814;fillColor=#E9F3E6;verticalAlign=top;align=left;spacingLeft=30;fontColor=#248814;dashed=0;" vertex="1" parent="qfSBq-5RkWq7vztMfRcF-9">
          <mxGeometry x="25" y="340" width="110" height="110" as="geometry" />
        </mxCell>
        <mxCell id="qfSBq-5RkWq7vztMfRcF-11" value="" style="sketch=0;points=[[0,0,0],[0.25,0,0],[0.5,0,0],[0.75,0,0],[1,0,0],[0,1,0],[0.25,1,0],[0.5,1,0],[0.75,1,0],[1,1,0],[0,0.25,0],[0,0.5,0],[0,0.75,0],[1,0.25,0],[1,0.5,0],[1,0.75,0]];outlineConnect=0;fontColor=#232F3E;gradientColor=#F78E04;gradientDirection=north;fillColor=#D05C17;strokeColor=#ffffff;dashed=0;verticalLabelPosition=bottom;verticalAlign=top;align=center;html=1;fontSize=12;fontStyle=0;aspect=fixed;shape=mxgraph.aws4.resourceIcon;resIcon=mxgraph.aws4.ec2;" vertex="1" parent="qfSBq-5RkWq7vztMfRcF-10">
          <mxGeometry x="30" y="40" width="50" height="50" as="geometry" />
        </mxCell>
        <mxCell id="qfSBq-5RkWq7vztMfRcF-12" style="edgeStyle=orthogonalEdgeStyle;rounded=0;orthogonalLoop=1;jettySize=auto;html=1;exitX=0.5;exitY=1;exitDx=0;exitDy=0;exitPerimeter=0;" edge="1" parent="qfSBq-5RkWq7vztMfRcF-10" source="qfSBq-5RkWq7vztMfRcF-11" target="qfSBq-5RkWq7vztMfRcF-11">
          <mxGeometry relative="1" as="geometry" />
        </mxCell>
        <mxCell id="qfSBq-5RkWq7vztMfRcF-13" value="Public subnet" style="points=[[0,0],[0.25,0],[0.5,0],[0.75,0],[1,0],[1,0.25],[1,0.5],[1,0.75],[1,1],[0.75,1],[0.5,1],[0.25,1],[0,1],[0,0.75],[0,0.5],[0,0.25]];outlineConnect=0;gradientColor=none;html=1;whiteSpace=wrap;fontSize=12;fontStyle=0;container=1;pointerEvents=0;collapsible=0;recursiveResize=0;shape=mxgraph.aws4.group;grIcon=mxgraph.aws4.group_security_group;grStroke=0;strokeColor=#248814;fillColor=#E9F3E6;verticalAlign=top;align=left;spacingLeft=30;fontColor=#248814;dashed=0;" vertex="1" parent="qfSBq-5RkWq7vztMfRcF-9">
          <mxGeometry x="25" y="200" width="110" height="110" as="geometry" />
        </mxCell>
        <mxCell id="qfSBq-5RkWq7vztMfRcF-14" value="" style="sketch=0;points=[[0,0,0],[0.25,0,0],[0.5,0,0],[0.75,0,0],[1,0,0],[0,1,0],[0.25,1,0],[0.5,1,0],[0.75,1,0],[1,1,0],[0,0.25,0],[0,0.5,0],[0,0.75,0],[1,0.25,0],[1,0.5,0],[1,0.75,0]];outlineConnect=0;fontColor=#232F3E;gradientColor=#F78E04;gradientDirection=north;fillColor=#D05C17;strokeColor=#ffffff;dashed=0;verticalLabelPosition=bottom;verticalAlign=top;align=center;html=1;fontSize=12;fontStyle=0;aspect=fixed;shape=mxgraph.aws4.resourceIcon;resIcon=mxgraph.aws4.ec2;" vertex="1" parent="qfSBq-5RkWq7vztMfRcF-13">
          <mxGeometry x="30" y="40" width="50" height="50" as="geometry" />
        </mxCell>
        <mxCell id="qfSBq-5RkWq7vztMfRcF-15" style="edgeStyle=orthogonalEdgeStyle;rounded=0;orthogonalLoop=1;jettySize=auto;html=1;exitX=0.5;exitY=1;exitDx=0;exitDy=0;exitPerimeter=0;" edge="1" parent="qfSBq-5RkWq7vztMfRcF-13" source="qfSBq-5RkWq7vztMfRcF-14" target="qfSBq-5RkWq7vztMfRcF-14">
          <mxGeometry relative="1" as="geometry" />
        </mxCell>
        <mxCell id="qfSBq-5RkWq7vztMfRcF-16" value="Public subnet" style="points=[[0,0],[0.25,0],[0.5,0],[0.75,0],[1,0],[1,0.25],[1,0.5],[1,0.75],[1,1],[0.75,1],[0.5,1],[0.25,1],[0,1],[0,0.75],[0,0.5],[0,0.25]];outlineConnect=0;gradientColor=none;html=1;whiteSpace=wrap;fontSize=12;fontStyle=0;container=1;pointerEvents=0;collapsible=0;recursiveResize=0;shape=mxgraph.aws4.group;grIcon=mxgraph.aws4.group_security_group;grStroke=0;strokeColor=#248814;fillColor=#E9F3E6;verticalAlign=top;align=left;spacingLeft=30;fontColor=#248814;dashed=0;" vertex="1" parent="qfSBq-5RkWq7vztMfRcF-9">
          <mxGeometry x="25" y="50" width="110" height="110" as="geometry" />
        </mxCell>
        <mxCell id="qfSBq-5RkWq7vztMfRcF-17" value="" style="sketch=0;points=[[0,0,0],[0.25,0,0],[0.5,0,0],[0.75,0,0],[1,0,0],[0,1,0],[0.25,1,0],[0.5,1,0],[0.75,1,0],[1,1,0],[0,0.25,0],[0,0.5,0],[0,0.75,0],[1,0.25,0],[1,0.5,0],[1,0.75,0]];outlineConnect=0;fontColor=#232F3E;gradientColor=#F78E04;gradientDirection=north;fillColor=#D05C17;strokeColor=#ffffff;dashed=0;verticalLabelPosition=bottom;verticalAlign=top;align=center;html=1;fontSize=12;fontStyle=0;aspect=fixed;shape=mxgraph.aws4.resourceIcon;resIcon=mxgraph.aws4.ec2;" vertex="1" parent="qfSBq-5RkWq7vztMfRcF-16">
          <mxGeometry x="30" y="40" width="50" height="50" as="geometry" />
        </mxCell>
        <mxCell id="qfSBq-5RkWq7vztMfRcF-18" style="edgeStyle=orthogonalEdgeStyle;rounded=0;orthogonalLoop=1;jettySize=auto;html=1;exitX=0.5;exitY=1;exitDx=0;exitDy=0;exitPerimeter=0;" edge="1" parent="qfSBq-5RkWq7vztMfRcF-16" source="qfSBq-5RkWq7vztMfRcF-17" target="qfSBq-5RkWq7vztMfRcF-17">
          <mxGeometry relative="1" as="geometry" />
        </mxCell>
        <mxCell id="qfSBq-5RkWq7vztMfRcF-84" style="edgeStyle=orthogonalEdgeStyle;rounded=0;orthogonalLoop=1;jettySize=auto;html=1;entryX=0.25;entryY=0;entryDx=0;entryDy=0;" edge="1" parent="qfSBq-5RkWq7vztMfRcF-3" source="qfSBq-5RkWq7vztMfRcF-23" target="qfSBq-5RkWq7vztMfRcF-51">
          <mxGeometry relative="1" as="geometry" />
        </mxCell>
        <mxCell id="qfSBq-5RkWq7vztMfRcF-86" value="Turn on EC2 upon &lt;br&gt;Cron request" style="edgeLabel;html=1;align=center;verticalAlign=middle;resizable=0;points=[];" vertex="1" connectable="0" parent="qfSBq-5RkWq7vztMfRcF-84">
          <mxGeometry x="-0.7822" relative="1" as="geometry">
            <mxPoint y="5" as="offset" />
          </mxGeometry>
        </mxCell>
        <mxCell id="qfSBq-5RkWq7vztMfRcF-23" value="" style="sketch=0;points=[[0,0,0],[0.25,0,0],[0.5,0,0],[0.75,0,0],[1,0,0],[0,1,0],[0.25,1,0],[0.5,1,0],[0.75,1,0],[1,1,0],[0,0.25,0],[0,0.5,0],[0,0.75,0],[1,0.25,0],[1,0.5,0],[1,0.75,0]];outlineConnect=0;fontColor=#232F3E;gradientColor=#F78E04;gradientDirection=north;fillColor=#D05C17;strokeColor=#ffffff;dashed=0;verticalLabelPosition=bottom;verticalAlign=top;align=center;html=1;fontSize=12;fontStyle=0;aspect=fixed;shape=mxgraph.aws4.resourceIcon;resIcon=mxgraph.aws4.lambda;" vertex="1" parent="qfSBq-5RkWq7vztMfRcF-3">
          <mxGeometry x="543" y="120" width="54" height="54" as="geometry" />
        </mxCell>
        <mxCell id="qfSBq-5RkWq7vztMfRcF-78" style="edgeStyle=orthogonalEdgeStyle;rounded=0;orthogonalLoop=1;jettySize=auto;html=1;entryX=1;entryY=0.5;entryDx=0;entryDy=0;" edge="1" parent="qfSBq-5RkWq7vztMfRcF-3" source="qfSBq-5RkWq7vztMfRcF-27" target="qfSBq-5RkWq7vztMfRcF-13">
          <mxGeometry relative="1" as="geometry">
            <mxPoint x="330" y="345" as="targetPoint" />
            <Array as="points">
              <mxPoint x="927" y="510" />
              <mxPoint x="470" y="510" />
              <mxPoint x="470" y="385" />
            </Array>
          </mxGeometry>
        </mxCell>
        <mxCell id="qfSBq-5RkWq7vztMfRcF-79" style="edgeStyle=orthogonalEdgeStyle;rounded=0;orthogonalLoop=1;jettySize=auto;html=1;entryX=1;entryY=0.5;entryDx=0;entryDy=0;" edge="1" parent="qfSBq-5RkWq7vztMfRcF-3" source="qfSBq-5RkWq7vztMfRcF-27" target="qfSBq-5RkWq7vztMfRcF-16">
          <mxGeometry relative="1" as="geometry">
            <mxPoint x="350" y="230" as="targetPoint" />
            <Array as="points">
              <mxPoint x="927" y="460" />
              <mxPoint x="510" y="460" />
              <mxPoint x="510" y="235" />
            </Array>
          </mxGeometry>
        </mxCell>
        <mxCell id="qfSBq-5RkWq7vztMfRcF-89" value="Presents&amp;nbsp;the predicted data for the webapp" style="edgeLabel;html=1;align=center;verticalAlign=middle;resizable=0;points=[];" vertex="1" connectable="0" parent="qfSBq-5RkWq7vztMfRcF-79">
          <mxGeometry x="-0.4552" relative="1" as="geometry">
            <mxPoint x="-41" as="offset" />
          </mxGeometry>
        </mxCell>
        <mxCell id="qfSBq-5RkWq7vztMfRcF-94" style="edgeStyle=orthogonalEdgeStyle;rounded=0;orthogonalLoop=1;jettySize=auto;html=1;entryX=1;entryY=0.5;entryDx=0;entryDy=0;exitX=0.5;exitY=1;exitDx=0;exitDy=0;exitPerimeter=0;" edge="1" parent="qfSBq-5RkWq7vztMfRcF-3" source="qfSBq-5RkWq7vztMfRcF-27" target="qfSBq-5RkWq7vztMfRcF-10">
          <mxGeometry relative="1" as="geometry">
            <mxPoint x="927" y="380" as="sourcePoint" />
            <Array as="points">
              <mxPoint x="927" y="560" />
              <mxPoint x="420" y="560" />
              <mxPoint x="420" y="525" />
            </Array>
          </mxGeometry>
        </mxCell>
        <mxCell id="qfSBq-5RkWq7vztMfRcF-27" value="" style="sketch=0;points=[[0,0,0],[0.25,0,0],[0.5,0,0],[0.75,0,0],[1,0,0],[0,1,0],[0.25,1,0],[0.5,1,0],[0.75,1,0],[1,1,0],[0,0.25,0],[0,0.5,0],[0,0.75,0],[1,0.25,0],[1,0.5,0],[1,0.75,0]];outlineConnect=0;fontColor=#232F3E;gradientColor=#60A337;gradientDirection=north;fillColor=#277116;strokeColor=#ffffff;dashed=0;verticalLabelPosition=bottom;verticalAlign=top;align=center;html=1;fontSize=12;fontStyle=0;aspect=fixed;shape=mxgraph.aws4.resourceIcon;resIcon=mxgraph.aws4.s3;" vertex="1" parent="qfSBq-5RkWq7vztMfRcF-3">
          <mxGeometry x="897" y="315" width="60" height="60" as="geometry" />
        </mxCell>
        <mxCell id="qfSBq-5RkWq7vztMfRcF-85" style="edgeStyle=orthogonalEdgeStyle;rounded=0;orthogonalLoop=1;jettySize=auto;html=1;entryX=0.75;entryY=0;entryDx=0;entryDy=0;" edge="1" parent="qfSBq-5RkWq7vztMfRcF-3" source="qfSBq-5RkWq7vztMfRcF-47" target="qfSBq-5RkWq7vztMfRcF-51">
          <mxGeometry relative="1" as="geometry" />
        </mxCell>
        <mxCell id="qfSBq-5RkWq7vztMfRcF-87" value="Turn off EC2 upon&lt;br&gt;after LSTM finishes &lt;br&gt;upon Cron request" style="edgeLabel;html=1;align=center;verticalAlign=middle;resizable=0;points=[];" vertex="1" connectable="0" parent="qfSBq-5RkWq7vztMfRcF-85">
          <mxGeometry x="-0.7761" y="-1" relative="1" as="geometry">
            <mxPoint x="1" y="4" as="offset" />
          </mxGeometry>
        </mxCell>
        <mxCell id="qfSBq-5RkWq7vztMfRcF-47" value="" style="sketch=0;points=[[0,0,0],[0.25,0,0],[0.5,0,0],[0.75,0,0],[1,0,0],[0,1,0],[0.25,1,0],[0.5,1,0],[0.75,1,0],[1,1,0],[0,0.25,0],[0,0.5,0],[0,0.75,0],[1,0.25,0],[1,0.5,0],[1,0.75,0]];outlineConnect=0;fontColor=#232F3E;gradientColor=#F78E04;gradientDirection=north;fillColor=#D05C17;strokeColor=#ffffff;dashed=0;verticalLabelPosition=bottom;verticalAlign=top;align=center;html=1;fontSize=12;fontStyle=0;aspect=fixed;shape=mxgraph.aws4.resourceIcon;resIcon=mxgraph.aws4.lambda;" vertex="1" parent="qfSBq-5RkWq7vztMfRcF-3">
          <mxGeometry x="673" y="122.22999999999999" width="54" height="54" as="geometry" />
        </mxCell>
        <mxCell id="qfSBq-5RkWq7vztMfRcF-60" style="edgeStyle=orthogonalEdgeStyle;rounded=0;orthogonalLoop=1;jettySize=auto;html=1;entryX=0.5;entryY=0;entryDx=0;entryDy=0;entryPerimeter=0;" edge="1" parent="qfSBq-5RkWq7vztMfRcF-3" source="qfSBq-5RkWq7vztMfRcF-56" target="qfSBq-5RkWq7vztMfRcF-27">
          <mxGeometry relative="1" as="geometry">
            <Array as="points">
              <mxPoint x="927" y="230" />
              <mxPoint x="927" y="230" />
            </Array>
          </mxGeometry>
        </mxCell>
        <mxCell id="qfSBq-5RkWq7vztMfRcF-62" value="PUT historical data in&amp;nbsp;&lt;br&gt;S3 Bucket" style="edgeLabel;html=1;align=center;verticalAlign=middle;resizable=0;points=[];" vertex="1" connectable="0" parent="qfSBq-5RkWq7vztMfRcF-60">
          <mxGeometry x="-0.1258" y="1" relative="1" as="geometry">
            <mxPoint as="offset" />
          </mxGeometry>
        </mxCell>
        <mxCell id="qfSBq-5RkWq7vztMfRcF-56" value="" style="sketch=0;points=[[0,0,0],[0.25,0,0],[0.5,0,0],[0.75,0,0],[1,0,0],[0,1,0],[0.25,1,0],[0.5,1,0],[0.75,1,0],[1,1,0],[0,0.25,0],[0,0.5,0],[0,0.75,0],[1,0.25,0],[1,0.5,0],[1,0.75,0]];outlineConnect=0;fontColor=#232F3E;gradientColor=#F78E04;gradientDirection=north;fillColor=#D05C17;strokeColor=#ffffff;dashed=0;verticalLabelPosition=bottom;verticalAlign=top;align=center;html=1;fontSize=12;fontStyle=0;aspect=fixed;shape=mxgraph.aws4.resourceIcon;resIcon=mxgraph.aws4.lambda;" vertex="1" parent="qfSBq-5RkWq7vztMfRcF-3">
          <mxGeometry x="900" y="90" width="54" height="54" as="geometry" />
        </mxCell>
        <mxCell id="qfSBq-5RkWq7vztMfRcF-58" value="&lt;font color=&quot;#ff8000&quot;&gt;EC2 - OFF&lt;/font&gt;" style="text;html=1;align=center;verticalAlign=middle;resizable=0;points=[];autosize=1;strokeColor=none;fillColor=none;" vertex="1" parent="qfSBq-5RkWq7vztMfRcF-3">
          <mxGeometry x="660" y="92.22999999999999" width="80" height="30" as="geometry" />
        </mxCell>
        <mxCell id="qfSBq-5RkWq7vztMfRcF-57" value="&lt;font color=&quot;#ff8000&quot;&gt;EC2 - ON&lt;/font&gt;" style="text;html=1;align=center;verticalAlign=middle;resizable=0;points=[];autosize=1;strokeColor=none;fillColor=none;" vertex="1" parent="qfSBq-5RkWq7vztMfRcF-3">
          <mxGeometry x="530" y="90" width="80" height="30" as="geometry" />
        </mxCell>
        <mxCell id="qfSBq-5RkWq7vztMfRcF-59" value="&lt;font color=&quot;#ff8000&quot;&gt;CoinGecko API&lt;/font&gt;" style="text;html=1;align=center;verticalAlign=middle;resizable=0;points=[];autosize=1;strokeColor=none;fillColor=none;" vertex="1" parent="qfSBq-5RkWq7vztMfRcF-3">
          <mxGeometry x="877" y="60" width="100" height="30" as="geometry" />
        </mxCell>
        <mxCell id="qfSBq-5RkWq7vztMfRcF-68" style="edgeStyle=orthogonalEdgeStyle;rounded=0;orthogonalLoop=1;jettySize=auto;html=1;entryX=0;entryY=0.5;entryDx=0;entryDy=0;entryPerimeter=0;" edge="1" parent="qfSBq-5RkWq7vztMfRcF-3" source="qfSBq-5RkWq7vztMfRcF-51" target="qfSBq-5RkWq7vztMfRcF-27">
          <mxGeometry relative="1" as="geometry" />
        </mxCell>
        <mxCell id="qfSBq-5RkWq7vztMfRcF-88" value="Gets data, Process it&amp;nbsp;&lt;br&gt;Predict it then PUT new&amp;nbsp; &lt;br&gt;ones in S3 bucket&lt;br&gt;" style="edgeLabel;html=1;align=center;verticalAlign=middle;resizable=0;points=[];" vertex="1" connectable="0" parent="qfSBq-5RkWq7vztMfRcF-68">
          <mxGeometry x="-0.1533" y="2" relative="1" as="geometry">
            <mxPoint x="14" y="2" as="offset" />
          </mxGeometry>
        </mxCell>
        <mxCell id="qfSBq-5RkWq7vztMfRcF-51" value="Public subnet" style="points=[[0,0],[0.25,0],[0.5,0],[0.75,0],[1,0],[1,0.25],[1,0.5],[1,0.75],[1,1],[0.75,1],[0.5,1],[0.25,1],[0,1],[0,0.75],[0,0.5],[0,0.25]];outlineConnect=0;gradientColor=none;html=1;whiteSpace=wrap;fontSize=12;fontStyle=0;container=1;pointerEvents=0;collapsible=0;recursiveResize=0;shape=mxgraph.aws4.group;grIcon=mxgraph.aws4.group_security_group;grStroke=0;strokeColor=#248814;fillColor=#E9F3E6;verticalAlign=top;align=left;spacingLeft=30;fontColor=#248814;dashed=0;" vertex="1" parent="qfSBq-5RkWq7vztMfRcF-3">
          <mxGeometry x="577" y="290" width="110" height="110" as="geometry" />
        </mxCell>
        <mxCell id="qfSBq-5RkWq7vztMfRcF-52" value="" style="sketch=0;points=[[0,0,0],[0.25,0,0],[0.5,0,0],[0.75,0,0],[1,0,0],[0,1,0],[0.25,1,0],[0.5,1,0],[0.75,1,0],[1,1,0],[0,0.25,0],[0,0.5,0],[0,0.75,0],[1,0.25,0],[1,0.5,0],[1,0.75,0]];outlineConnect=0;fontColor=#232F3E;gradientColor=#F78E04;gradientDirection=north;fillColor=#D05C17;strokeColor=#ffffff;dashed=0;verticalLabelPosition=bottom;verticalAlign=top;align=center;html=1;fontSize=12;fontStyle=0;aspect=fixed;shape=mxgraph.aws4.resourceIcon;resIcon=mxgraph.aws4.ec2;" vertex="1" parent="qfSBq-5RkWq7vztMfRcF-51">
          <mxGeometry x="30" y="40" width="50" height="50" as="geometry" />
        </mxCell>
        <mxCell id="qfSBq-5RkWq7vztMfRcF-53" style="edgeStyle=orthogonalEdgeStyle;rounded=0;orthogonalLoop=1;jettySize=auto;html=1;exitX=0.5;exitY=1;exitDx=0;exitDy=0;exitPerimeter=0;" edge="1" parent="qfSBq-5RkWq7vztMfRcF-51" source="qfSBq-5RkWq7vztMfRcF-52" target="qfSBq-5RkWq7vztMfRcF-52">
          <mxGeometry relative="1" as="geometry" />
        </mxCell>
        <mxCell id="qfSBq-5RkWq7vztMfRcF-55" value="&lt;font color=&quot;#ff8000&quot;&gt;LSTM - EC2&lt;/font&gt;" style="text;html=1;align=center;verticalAlign=middle;resizable=0;points=[];autosize=1;strokeColor=none;fillColor=none;" vertex="1" parent="qfSBq-5RkWq7vztMfRcF-3">
          <mxGeometry x="587" y="400" width="90" height="30" as="geometry" />
        </mxCell>
        <mxCell id="qfSBq-5RkWq7vztMfRcF-90" value="Presents&amp;nbsp;the predicted data for the webapp" style="edgeLabel;html=1;align=center;verticalAlign=middle;resizable=0;points=[];" vertex="1" connectable="0" parent="qfSBq-5RkWq7vztMfRcF-3">
          <mxGeometry x="710.000769230769" y="510" as="geometry" />
        </mxCell>
        <mxCell id="qfSBq-5RkWq7vztMfRcF-91" value="Presents&amp;nbsp;the predicted data for the webapp" style="edgeLabel;html=1;align=center;verticalAlign=middle;resizable=0;points=[];" vertex="1" connectable="0" parent="qfSBq-5RkWq7vztMfRcF-3">
          <mxGeometry x="710.000769230769" y="560" as="geometry" />
        </mxCell>
        <mxCell id="qfSBq-5RkWq7vztMfRcF-96" style="edgeStyle=orthogonalEdgeStyle;rounded=0;orthogonalLoop=1;jettySize=auto;html=1;" edge="1" parent="qfSBq-5RkWq7vztMfRcF-3" source="qfSBq-5RkWq7vztMfRcF-95" target="qfSBq-5RkWq7vztMfRcF-57">
          <mxGeometry relative="1" as="geometry" />
        </mxCell>
        <mxCell id="qfSBq-5RkWq7vztMfRcF-97" style="edgeStyle=orthogonalEdgeStyle;rounded=0;orthogonalLoop=1;jettySize=auto;html=1;" edge="1" parent="qfSBq-5RkWq7vztMfRcF-3" source="qfSBq-5RkWq7vztMfRcF-95" target="qfSBq-5RkWq7vztMfRcF-58">
          <mxGeometry relative="1" as="geometry" />
        </mxCell>
        <mxCell id="qfSBq-5RkWq7vztMfRcF-100" style="edgeStyle=orthogonalEdgeStyle;rounded=0;orthogonalLoop=1;jettySize=auto;html=1;" edge="1" parent="qfSBq-5RkWq7vztMfRcF-3" source="qfSBq-5RkWq7vztMfRcF-95">
          <mxGeometry relative="1" as="geometry">
            <mxPoint x="930" y="70" as="targetPoint" />
            <Array as="points">
              <mxPoint x="930" y="51" />
              <mxPoint x="930" y="70" />
            </Array>
          </mxGeometry>
        </mxCell>
        <mxCell id="qfSBq-5RkWq7vztMfRcF-95" value="" style="sketch=0;points=[[0,0,0],[0.25,0,0],[0.5,0,0],[0.75,0,0],[1,0,0],[0,1,0],[0.25,1,0],[0.5,1,0],[0.75,1,0],[1,1,0],[0,0.25,0],[0,0.5,0],[0,0.75,0],[1,0.25,0],[1,0.5,0],[1,0.75,0]];outlineConnect=0;fontColor=#232F3E;gradientColor=#FF4F8B;gradientDirection=north;fillColor=#BC1356;strokeColor=#ffffff;dashed=0;verticalLabelPosition=bottom;verticalAlign=top;align=center;html=1;fontSize=12;fontStyle=0;aspect=fixed;shape=mxgraph.aws4.resourceIcon;resIcon=mxgraph.aws4.eventbridge;" vertex="1" parent="qfSBq-5RkWq7vztMfRcF-3">
          <mxGeometry x="440" y="22" width="58" height="58" as="geometry" />
        </mxCell>
        <mxCell id="qfSBq-5RkWq7vztMfRcF-99" value="&lt;font color=&quot;#ff0080&quot;&gt;EventBridge&lt;/font&gt;" style="text;html=1;align=center;verticalAlign=middle;resizable=0;points=[];autosize=1;strokeColor=none;fillColor=none;" vertex="1" parent="qfSBq-5RkWq7vztMfRcF-3">
          <mxGeometry x="424" y="80" width="90" height="30" as="geometry" />
        </mxCell>
        <mxCell id="qfSBq-5RkWq7vztMfRcF-98" value="Activate Cron jobs" style="text;html=1;align=center;verticalAlign=middle;resizable=0;points=[];autosize=1;strokeColor=none;fillColor=none;" vertex="1" parent="qfSBq-5RkWq7vztMfRcF-3">
          <mxGeometry x="673" y="18" width="120" height="30" as="geometry" />
        </mxCell>
        <mxCell id="qfSBq-5RkWq7vztMfRcF-44" value="" style="edgeStyle=orthogonalEdgeStyle;rounded=0;orthogonalLoop=1;jettySize=auto;html=1;fontColor=#00994D;entryX=0;entryY=0.5;entryDx=0;entryDy=0;" edge="1" parent="1" source="qfSBq-5RkWq7vztMfRcF-45" target="qfSBq-5RkWq7vztMfRcF-13">
          <mxGeometry relative="1" as="geometry">
            <mxPoint x="1300" y="575" as="targetPoint" />
          </mxGeometry>
        </mxCell>
        <mxCell id="qfSBq-5RkWq7vztMfRcF-45" value="" style="sketch=0;outlineConnect=0;fontColor=#232F3E;gradientColor=none;fillColor=#4D27AA;strokeColor=none;dashed=0;verticalLabelPosition=bottom;verticalAlign=top;align=center;html=1;fontSize=12;fontStyle=0;aspect=fixed;pointerEvents=1;shape=mxgraph.aws4.internet_gateway;" vertex="1" parent="1">
          <mxGeometry x="1140" y="550" width="50" height="50" as="geometry" />
        </mxCell>
        <mxCell id="qfSBq-5RkWq7vztMfRcF-46" value="&lt;font color=&quot;#4c0099&quot;&gt;Internet Gateway&lt;/font&gt;" style="text;html=1;align=center;verticalAlign=middle;resizable=0;points=[];autosize=1;strokeColor=none;fillColor=none;fontColor=#000000;" vertex="1" parent="1">
          <mxGeometry x="1110" y="600" width="110" height="30" as="geometry" />
        </mxCell>
      </root>
    </mxGraphModel>
  </diagram>
</mxfile>
